<svg width="360" height="74" viewBox="0 0 360 74" fill="none" xmlns="http://www.w3.org/2000/svg">
<path d="M137.227 21.8453C137.227 33.9101 127.446 43.6905 115.381 43.6905C103.317 43.6905 93.5361 33.9101 93.5361 21.8453C93.5361 9.78046 103.317 0 115.381 0C127.446 0 137.227 9.78046 137.227 21.8453Z" fill="#3269BA"/>
<path fill-rule="evenodd" clip-rule="evenodd" d="M103.849 11.5662C102.231 13.5189 101.387 15.7733 101.266 16.975C101.191 17.7253 100.522 18.2727 99.7721 18.1977C99.0217 18.1226 98.4743 17.4536 98.5494 16.7032C98.7326 14.8709 99.845 12.119 101.747 9.82402C103.674 7.49826 106.567 5.46136 110.375 5.46136C111.129 5.46136 111.741 6.07264 111.741 6.82669C111.741 7.58074 111.129 8.19202 110.375 8.19202C107.63 8.19202 105.442 9.6443 103.849 11.5662Z" fill="white"/>
<path d="M18.3227 44.6518C31.3589 44.6518 37.907 38.1637 37.907 30.4742C37.907 14.975 14.6582 19.1802 14.6582 14.1339C14.6582 12.6921 15.9798 11.4906 20.1249 11.4906C23.7895 11.4906 27.6943 12.5119 31.8395 14.6145L36.1048 4.34179C31.7193 1.87873 25.8921 0.677246 20.2451 0.677246C7.20894 0.677246 0.660819 7.04514 0.660819 14.8548C0.660819 30.5343 23.9096 26.269 23.9096 31.5555C23.9096 32.9973 22.4678 33.8384 18.4429 33.8384C13.8171 33.8384 8.53057 32.3365 4.56566 29.9936L0 40.3264C4.20521 42.9096 11.294 44.6518 18.3227 44.6518Z" fill="#3269BA"/>
<path d="M68.078 1.63844H47.8329V43.6906H62.0105V33.3578H68.078C79.7925 33.3578 87.2417 27.2302 87.2417 17.4981C87.2417 7.76603 79.7925 1.63844 68.078 1.63844ZM67.1769 22.4242H62.0105V12.572H67.1769C71.0817 12.572 72.944 14.4343 72.944 17.4981C72.944 20.5619 71.0817 22.4242 67.1769 22.4242Z" fill="#3269BA"/>
<path d="M154.752 43.6906H168.929V12.6321H181.245V1.63844H142.437V12.6321H154.752V43.6906Z" fill="#3269BA"/>
<path d="M190.634 43.6906H223.795V32.6969H204.812V1.63844H190.634V43.6906Z" fill="#3269BA"/>
<path d="M247.356 32.9973V27.4705H265.138V17.2578H247.356V12.3317H267.601V1.63844H233.418V43.6906H268.382V32.9973H247.356Z" fill="#3269BA"/>
<path d="M295.226 44.6518C308.262 44.6518 314.81 38.1637 314.81 30.4742C314.81 14.975 291.562 19.1802 291.562 14.1339C291.562 12.6921 292.883 11.4906 297.028 11.4906C300.693 11.4906 304.598 12.5119 308.743 14.6145L313.008 4.34179C308.623 1.87873 302.795 0.677246 297.148 0.677246C284.112 0.677246 277.564 7.04514 277.564 14.8548C277.564 30.5343 300.813 26.269 300.813 31.5555C300.813 32.9973 299.371 33.8384 295.346 33.8384C290.721 33.8384 285.434 32.3365 281.469 29.9936L276.903 40.3264C281.109 42.9096 288.197 44.6518 295.226 44.6518Z" fill="#3269BA"/>
<path d="M340.416 44.6518C353.452 44.6518 360 38.1637 360 30.4742C360 14.975 336.751 19.1802 336.751 14.1339C336.751 12.6921 338.073 11.4906 342.218 11.4906C345.882 11.4906 349.787 12.5119 353.932 14.6145L358.198 4.34179C353.812 1.87873 347.985 0.677246 342.338 0.677246C329.302 0.677246 322.754 7.04514 322.754 14.8548C322.754 30.5343 346.003 26.269 346.003 31.5555C346.003 32.9973 344.561 33.8384 340.536 33.8384C335.91 33.8384 330.624 32.3365 326.659 29.9936L322.093 40.3264C326.298 42.9096 333.387 44.6518 340.416 44.6518Z" fill="#3269BA"/>
<path d="M25.9004 70.0869H33.1239V68.4849H27.7936V59.8924H25.9004V70.0869Z" fill="#3269BA"/>
<path d="M36.0167 61.0284C36.7012 61.0284 37.1818 60.5332 37.1818 59.8924C37.1818 59.2953 36.6866 58.8439 36.0167 58.8439C35.3468 58.8439 34.8516 59.3245 34.8516 59.9361C34.8516 60.5478 35.3468 61.0284 36.0167 61.0284ZM35.0992 70.0869H36.9196V62.31H35.0992V70.0869Z" fill="#3269BA"/>
<path d="M49.7801 62.2226C48.5422 62.2226 47.4936 62.7178 46.8674 63.5188C46.3286 62.6449 45.3819 62.2226 44.246 62.2226C43.1828 62.2226 42.2799 62.6013 41.6974 63.3003V62.31H39.9643V70.0869H41.7847V66.1402C41.7847 64.5965 42.6003 63.81 43.8091 63.81C44.9159 63.81 45.5567 64.4799 45.5567 65.8635V70.0869H47.3771V66.1402C47.3771 64.5965 48.2072 63.81 49.4015 63.81C50.5083 63.81 51.1491 64.4799 51.1491 65.8635V70.0869H52.9695V65.6305C52.9695 63.2857 51.6588 62.2226 49.7801 62.2226Z" fill="#3269BA"/>
<path d="M60.262 62.2226C59.1988 62.2226 58.2959 62.5867 57.6842 63.3294V62.31H55.9512V72.9122H57.7716V69.1403C58.3978 69.8539 59.2716 70.1888 60.262 70.1888C62.5339 70.1888 64.2087 68.616 64.2087 66.1984C64.2087 63.7955 62.5339 62.2226 60.262 62.2226ZM60.0581 68.6305C58.7474 68.6305 57.7425 67.6839 57.7425 66.1984C57.7425 64.713 58.7474 63.7663 60.0581 63.7663C61.3688 63.7663 62.3591 64.713 62.3591 66.1984C62.3591 67.6839 61.3688 68.6305 60.0581 68.6305Z" fill="#3269BA"/>
<path d="M67.508 61.0284C68.1925 61.0284 68.6731 60.5332 68.6731 59.8924C68.6731 59.2953 68.1779 58.8439 67.508 58.8439C66.8381 58.8439 66.3429 59.3245 66.3429 59.9361C66.3429 60.5478 66.8381 61.0284 67.508 61.0284ZM66.5905 70.0869H68.4109V62.31H66.5905V70.0869Z" fill="#3269BA"/>
<path d="M78.7665 66.2421C78.7665 63.81 77.1062 62.2226 74.8343 62.2226C72.5187 62.2226 70.8148 63.8828 70.8148 66.1984C70.8148 68.514 72.5042 70.1888 75.111 70.1888C76.4509 70.1888 77.5432 69.7519 78.2422 68.9218L77.2664 67.8004C76.713 68.3684 76.0285 68.6451 75.1547 68.6451C73.8003 68.6451 72.8537 67.9169 72.6353 66.781H78.7374C78.7519 66.6062 78.7665 66.3878 78.7665 66.2421ZM74.8343 63.679C76.0285 63.679 76.8878 64.4508 77.0334 65.5722H72.6207C72.7954 64.4363 73.6547 63.679 74.8343 63.679Z" fill="#3269BA"/>
<path d="M82.7742 68.6305L87.0559 63.4605V62.31H80.546V63.7663H84.7257L80.4586 68.9364V70.0869H87.1724V68.6305H82.7742Z" fill="#3269BA"/>
<path d="M92.4768 62.2226C91.2243 62.2226 90.0155 62.543 89.1854 63.1838L89.899 64.5091C90.4816 64.0285 91.3845 63.7372 92.2583 63.7372C93.5545 63.7372 94.1953 64.3634 94.1953 65.4266V65.5431H92.1855C89.8262 65.5431 88.9524 66.5625 88.9524 67.8587C88.9524 69.2131 90.0738 70.1888 91.8505 70.1888C93.0156 70.1888 93.8603 69.8102 94.2972 69.1403V70.0869H96.0157V65.5285C96.0157 63.2857 94.7196 62.2226 92.4768 62.2226ZM92.2292 68.8636C91.2971 68.8636 90.7437 68.4412 90.7437 67.7859C90.7437 67.2179 91.0787 66.7519 92.3166 66.7519H94.1953V67.6548C93.8894 68.4558 93.1176 68.8636 92.2292 68.8636Z" fill="#3269BA"/>
<path d="M109.484 59.2808V63.2712C108.872 62.5576 107.984 62.2226 106.979 62.2226C104.722 62.2226 103.047 63.7809 103.047 66.1984C103.047 68.616 104.722 70.1888 106.979 70.1888C108.042 70.1888 108.945 69.8248 109.557 69.082V70.0869H111.304V59.2808H109.484ZM107.197 68.6305C105.887 68.6305 104.882 67.6839 104.882 66.1984C104.882 64.713 105.887 63.7663 107.197 63.7663C108.508 63.7663 109.513 64.713 109.513 66.1984C109.513 67.6839 108.508 68.6305 107.197 68.6305Z" fill="#3269BA"/>
<path d="M121.652 66.2421C121.652 63.81 119.992 62.2226 117.72 62.2226C115.404 62.2226 113.7 63.8828 113.7 66.1984C113.7 68.514 115.39 70.1888 117.997 70.1888C119.336 70.1888 120.429 69.7519 121.128 68.9218L120.152 67.8004C119.599 68.3684 118.914 68.6451 118.04 68.6451C116.686 68.6451 115.739 67.9169 115.521 66.781H121.623C121.637 66.6062 121.652 66.3878 121.652 66.2421ZM117.72 63.679C118.914 63.679 119.773 64.4508 119.919 65.5722H115.506C115.681 64.4363 116.54 63.679 117.72 63.679Z" fill="#3269BA"/>
<path d="M132.232 70.1888C134.649 70.1888 136.382 68.5286 136.382 66.1984C136.382 63.8683 134.649 62.2226 132.232 62.2226C129.843 62.2226 128.095 63.8683 128.095 66.1984C128.095 68.5286 129.843 70.1888 132.232 70.1888ZM132.232 68.6305C130.921 68.6305 129.93 67.6839 129.93 66.1984C129.93 64.713 130.921 63.7663 132.232 63.7663C133.557 63.7663 134.547 64.713 134.547 66.1984C134.547 67.6839 133.557 68.6305 132.232 68.6305Z" fill="#3269BA"/>
<path d="M146.235 61.0284C146.919 61.0284 147.4 60.5332 147.4 59.8924C147.4 59.2953 146.905 58.8439 146.235 58.8439C145.565 58.8439 145.07 59.3245 145.07 59.9361C145.07 60.5478 145.565 61.0284 146.235 61.0284ZM139.026 61.8731V62.3682H137.744V63.8246H139.026V70.0869H140.846V63.8246H142.929V62.3682H140.788V61.9022C140.788 61.0721 141.181 60.6497 141.939 60.6497C142.317 60.6497 142.667 60.7808 142.943 60.9701L143.453 59.6012C143.045 59.3099 142.434 59.1788 141.807 59.1788C140.002 59.1788 139.026 60.242 139.026 61.8731ZM145.317 70.0869H147.138V62.31H145.317V70.0869Z" fill="#3269BA"/>
<path d="M153.754 70.1888C155.268 70.1888 156.477 69.5335 157.074 68.3684L155.676 67.5528C155.21 68.2956 154.511 68.6305 153.739 68.6305C152.399 68.6305 151.38 67.713 151.38 66.1984C151.38 64.6984 152.399 63.7663 153.739 63.7663C154.511 63.7663 155.21 64.1013 155.676 64.844L157.074 64.0285C156.477 62.8488 155.268 62.2226 153.754 62.2226C151.292 62.2226 149.545 63.8683 149.545 66.1984C149.545 68.5286 151.292 70.1888 153.754 70.1888Z" fill="#3269BA"/>
<path d="M160.221 61.0284C160.905 61.0284 161.386 60.5332 161.386 59.8924C161.386 59.2953 160.891 58.8439 160.221 58.8439C159.551 58.8439 159.056 59.3245 159.056 59.9361C159.056 60.5478 159.551 61.0284 160.221 61.0284ZM159.303 70.0869H161.124V62.31H159.303V70.0869Z" fill="#3269BA"/>
<path d="M168.581 62.2226C167.445 62.2226 166.498 62.6013 165.901 63.3149V62.31H164.168V70.0869H165.989V66.1548C165.989 64.5965 166.863 63.81 168.159 63.81C169.324 63.81 170.008 64.4799 170.008 65.8635V70.0869H171.829V65.6305C171.829 63.2857 170.445 62.2226 168.581 62.2226Z" fill="#3269BA"/>
<path d="M177.764 62.2226C176.512 62.2226 175.303 62.543 174.473 63.1838L175.187 64.5091C175.769 64.0285 176.672 63.7372 177.546 63.7372C178.842 63.7372 179.483 64.3634 179.483 65.4266V65.5431H177.473C175.114 65.5431 174.24 66.5625 174.24 67.8587C174.24 69.2131 175.361 70.1888 177.138 70.1888C178.303 70.1888 179.148 69.8102 179.585 69.1403V70.0869H181.303V65.5285C181.303 63.2857 180.007 62.2226 177.764 62.2226ZM177.517 68.8636C176.585 68.8636 176.031 68.4412 176.031 67.7859C176.031 67.2179 176.366 66.7519 177.604 66.7519H179.483V67.6548C179.177 68.4558 178.405 68.8636 177.517 68.8636Z" fill="#3269BA"/>
<path d="M186.698 70.1888C188.882 70.1888 190.222 69.2422 190.222 67.7859C190.222 64.7421 185.416 66.1402 185.416 64.5673C185.416 64.0576 185.941 63.6935 187.047 63.6935C187.79 63.6935 188.533 63.8392 189.276 64.2761L189.975 62.8925C189.276 62.4702 188.096 62.2226 187.062 62.2226C184.965 62.2226 183.64 63.1838 183.64 64.6547C183.64 67.7567 188.446 66.3586 188.446 67.8441C188.446 68.383 187.965 68.7034 186.814 68.7034C185.839 68.7034 184.79 68.383 184.106 67.9315L183.407 69.315C184.106 69.8102 185.402 70.1888 186.698 70.1888Z" fill="#3269BA"/>
<path d="M202.66 62.31L200.198 68.0626L197.752 62.31H195.859L199.252 70.116L199.121 70.4219C198.771 71.1937 198.393 71.4996 197.752 71.4996C197.257 71.4996 196.761 71.2957 196.412 70.9607L195.684 72.3006C196.179 72.752 196.995 73.0142 197.766 73.0142C199.063 73.0142 200.053 72.4753 200.766 70.7131L204.407 62.31H202.66Z" fill="#3269BA"/>
<path d="M216.677 59.2808V63.2712C216.065 62.5576 215.177 62.2226 214.172 62.2226C211.915 62.2226 210.24 63.7809 210.24 66.1984C210.24 68.616 211.915 70.1888 214.172 70.1888C215.235 70.1888 216.138 69.8248 216.75 69.082V70.0869H218.497V59.2808H216.677ZM214.391 68.6305C213.08 68.6305 212.075 67.6839 212.075 66.1984C212.075 64.713 213.08 63.7663 214.391 63.7663C215.701 63.7663 216.706 64.713 216.706 66.1984C216.706 67.6839 215.701 68.6305 214.391 68.6305Z" fill="#3269BA"/>
<path d="M228.845 66.2421C228.845 63.81 227.185 62.2226 224.913 62.2226C222.597 62.2226 220.893 63.8828 220.893 66.1984C220.893 68.514 222.583 70.1888 225.19 70.1888C226.53 70.1888 227.622 69.7519 228.321 68.9218L227.345 67.8004C226.792 68.3684 226.107 68.6451 225.233 68.6451C223.879 68.6451 222.932 67.9169 222.714 66.781H228.816C228.831 66.6062 228.845 66.3878 228.845 66.2421ZM224.913 63.679C226.107 63.679 226.966 64.4508 227.112 65.5722H222.699C222.874 64.4363 223.733 63.679 224.913 63.679Z" fill="#3269BA"/>
<path d="M235.56 62.2226C234.497 62.2226 233.594 62.5867 232.982 63.3294V62.31H231.249V72.9122H233.07V69.1403C233.696 69.8539 234.57 70.1888 235.56 70.1888C237.832 70.1888 239.507 68.616 239.507 66.1984C239.507 63.7955 237.832 62.2226 235.56 62.2226ZM235.356 68.6305C234.045 68.6305 233.04 67.6839 233.04 66.1984C233.04 64.713 234.045 63.7663 235.356 63.7663C236.667 63.7663 237.657 64.713 237.657 66.1984C237.657 67.6839 236.667 68.6305 235.356 68.6305Z" fill="#3269BA"/>
<path d="M244.76 62.2226C243.507 62.2226 242.299 62.543 241.469 63.1838L242.182 64.5091C242.765 64.0285 243.668 63.7372 244.541 63.7372C245.838 63.7372 246.478 64.3634 246.478 65.4266V65.5431H244.469C242.109 65.5431 241.235 66.5625 241.235 67.8587C241.235 69.2131 242.357 70.1888 244.134 70.1888C245.299 70.1888 246.143 69.8102 246.58 69.1403V70.0869H248.299V65.5285C248.299 63.2857 247.003 62.2226 244.76 62.2226ZM244.512 68.8636C243.58 68.8636 243.027 68.4412 243.027 67.7859C243.027 67.2179 243.362 66.7519 244.6 66.7519H246.478V67.6548C246.173 68.4558 245.401 68.8636 244.512 68.8636Z" fill="#3269BA"/>
<path d="M253.024 63.4459V62.31H251.29V70.0869H253.111V66.315C253.111 64.7275 253.985 63.912 255.368 63.912C255.499 63.912 255.63 63.9265 255.791 63.9557V62.2226C254.494 62.2226 253.548 62.6304 253.024 63.4459Z" fill="#3269BA"/>
<path d="M262.44 68.3684C262.163 68.5869 261.799 68.6888 261.42 68.6888C260.721 68.6888 260.343 68.281 260.343 67.5237V63.8246H262.425V62.3682H260.343V60.5915H258.522V62.3682H257.241V63.8246H258.522V67.5674C258.522 69.2859 259.498 70.1888 261.202 70.1888C261.857 70.1888 262.513 70.0141 262.95 69.6646L262.44 68.3684Z" fill="#3269BA"/>
<path d="M268.073 62.2226C266.821 62.2226 265.612 62.543 264.782 63.1838L265.496 64.5091C266.078 64.0285 266.981 63.7372 267.855 63.7372C269.151 63.7372 269.792 64.3634 269.792 65.4266V65.5431H267.782C265.423 65.5431 264.549 66.5625 264.549 67.8587C264.549 69.2131 265.67 70.1888 267.447 70.1888C268.612 70.1888 269.457 69.8102 269.894 69.1403V70.0869H271.612V65.5285C271.612 63.2857 270.316 62.2226 268.073 62.2226ZM267.826 68.8636C266.894 68.8636 266.34 68.4412 266.34 67.7859C266.34 67.2179 266.675 66.7519 267.913 66.7519H269.792V67.6548C269.486 68.4558 268.714 68.8636 267.826 68.8636Z" fill="#3269BA"/>
<path d="M284.42 62.2226C283.182 62.2226 282.133 62.7178 281.507 63.5188C280.968 62.6449 280.022 62.2226 278.886 62.2226C277.823 62.2226 276.92 62.6013 276.337 63.3003V62.31H274.604V70.0869H276.424V66.1402C276.424 64.5965 277.24 63.81 278.449 63.81C279.556 63.81 280.196 64.4799 280.196 65.8635V70.0869H282.017V66.1402C282.017 64.5965 282.847 63.81 284.041 63.81C285.148 63.81 285.789 64.4799 285.789 65.8635V70.0869H287.609V65.6305C287.609 63.2857 286.299 62.2226 284.42 62.2226Z" fill="#3269BA"/>
<path d="M297.973 66.2421C297.973 63.81 296.313 62.2226 294.041 62.2226C291.725 62.2226 290.021 63.8828 290.021 66.1984C290.021 68.514 291.711 70.1888 294.317 70.1888C295.657 70.1888 296.75 69.7519 297.449 68.9218L296.473 67.8004C295.919 68.3684 295.235 68.6451 294.361 68.6451C293.007 68.6451 292.06 67.9169 291.842 66.781H297.944C297.958 66.6062 297.973 66.3878 297.973 66.2421ZM294.041 63.679C295.235 63.679 296.094 64.4508 296.24 65.5722H291.827C292.002 64.4363 292.861 63.679 294.041 63.679Z" fill="#3269BA"/>
<path d="M304.79 62.2226C303.654 62.2226 302.707 62.6013 302.11 63.3149V62.31H300.377V70.0869H302.197V66.1548C302.197 64.5965 303.071 63.81 304.367 63.81C305.532 63.81 306.217 64.4799 306.217 65.8635V70.0869H308.037V65.6305C308.037 63.2857 306.654 62.2226 304.79 62.2226Z" fill="#3269BA"/>
<path d="M315.167 68.3684C314.89 68.5869 314.526 68.6888 314.148 68.6888C313.449 68.6888 313.07 68.281 313.07 67.5237V63.8246H315.153V62.3682H313.07V60.5915H311.25V62.3682H309.968V63.8246H311.25V67.5674C311.25 69.2859 312.225 70.1888 313.929 70.1888C314.585 70.1888 315.24 70.0141 315.677 69.6646L315.167 68.3684Z" fill="#3269BA"/>
<path d="M321.069 70.1888C323.487 70.1888 325.22 68.5286 325.22 66.1984C325.22 63.8683 323.487 62.2226 321.069 62.2226C318.681 62.2226 316.933 63.8683 316.933 66.1984C316.933 68.5286 318.681 70.1888 321.069 70.1888ZM321.069 68.6305C319.758 68.6305 318.768 67.6839 318.768 66.1984C318.768 64.713 319.758 63.7663 321.069 63.7663C322.394 63.7663 323.385 64.713 323.385 66.1984C323.385 67.6839 322.394 68.6305 321.069 68.6305Z" fill="#3269BA"/>
<path d="M330.019 70.1888C332.203 70.1888 333.543 69.2422 333.543 67.7859C333.543 64.7421 328.737 66.1402 328.737 64.5673C328.737 64.0576 329.261 63.6935 330.368 63.6935C331.111 63.6935 331.854 63.8392 332.596 64.2761L333.296 62.8925C332.596 62.4702 331.417 62.2226 330.383 62.2226C328.286 62.2226 326.96 63.1838 326.96 64.6547C326.96 67.7567 331.766 66.3586 331.766 67.8441C331.766 68.383 331.286 68.7034 330.135 68.7034C329.159 68.7034 328.111 68.383 327.426 67.9315L326.727 69.315C327.426 69.8102 328.723 70.1888 330.019 70.1888Z" fill="#3269BA"/>
</svg>
